<svg id="Layer_1" enable-background="new 0 0 512 512" height="512" viewBox="0 0 512 512" width="512" xmlns="http://www.w3.org/2000/svg"><path d="m182.981 74.382c-5.179-13.811-24.785-13.808-29.963 0l-48 128c-3.103 8.274 1.089 17.497 9.363 20.6 8.275 3.102 17.497-1.09 20.6-9.363l8.107-21.619h49.824l8.107 21.618c3.104 8.276 12.327 12.465 20.6 9.363 8.274-3.103 12.466-12.326 9.363-20.6zm-27.893 85.618 12.912-34.432 12.912 34.432z"/><path d="m350.135 344.328c.082-5.516.195-10.864.325-15.928 17.72-2.324 25.15-1.092 27.703-.357 3.728 6.428 11.572 9.579 18.895 7.136 8.383-2.794 12.914-11.855 10.119-20.238-6.968-20.904-33.889-21.2-55.558-18.886.207-4.466.35-7.076.355-7.167.489-8.823-6.266-16.373-15.088-16.862-8.835-.479-16.373 6.265-16.863 15.087-.031.557-.323 5.871-.675 14.294-23.276 4.938-43.101 11.008-44.055 11.301-8.446 2.599-13.186 11.552-10.587 19.998 2.117 6.878 8.448 11.299 15.287 11.299 5.267 0 7.838-2.576 38.311-9.592-.111 5.225-.198 10.688-.251 16.28-22.415 8.085-38.239 23.261-45.235 44.248-12.616 37.85 13.36 60.469 52.824 52.714 7.167 19.854 22.451 18.878 29.669 11.659 5.984-5.983 6.237-15.528.76-21.813-.108-.227-.253-.564-.426-1.04 13.025-7.462 24.369-18.266 27.875-32.289 2.143-8.573-3.069-17.259-11.642-19.403-8.57-2.144-17.259 3.069-19.403 11.642-.226.904-.782 1.962-1.633 3.113-.341-6.559-.602-14.208-.738-23.124 23-1.892 41.745 1.335 41.895 23.708.034 5.075-5.042 14.307-11.314 20.58-6.249 6.248-6.249 16.379 0 22.627 6.248 6.249 16.379 6.249 22.627 0 10.073-10.073 20.797-26.77 20.686-43.42-.226-34.019-23.4-58.851-73.863-55.567zm-30.229 71.831c-10.931 2.223-16.956.275-17.976-.817-1.346-1.441.146-18.839 16.36-29.379.315 11.982.872 21.919 1.616 30.196z"/><path d="m448 224h-112v-31.132l56.48-35.3c10.002-6.251 10.031-20.867 0-27.136l-56.48-35.3v-31.132c0-35.29-28.71-64-64-64h-208c-35.29 0-64 28.71-64 64v160c0 35.29 28.71 64 64 64h112v31.132l-56.48 35.3c-10.002 6.251-10.031 20.867 0 27.136l56.48 35.3v31.132c0 35.29 28.71 64 64 64h208c35.29 0 64-28.71 64-64v-160c0-35.29-28.71-64-64-64zm-384 32c-17.645 0-32-14.355-32-32v-160c0-17.645 14.355-32 32-32h208c17.645 0 32 14.355 32 32v40c0 5.517 2.842 10.644 7.52 13.568l42.291 26.432-42.291 26.432c-4.678 2.924-7.52 8.051-7.52 13.568 0 43.538.563 43.948-1.815 50.667-4.511 12.76-16.642 21.333-30.185 21.333zm416 192c0 17.645-14.355 32-32 32h-208c-17.645 0-32-14.355-32-32v-40c0-5.517-2.842-10.644-7.52-13.568l-42.291-26.432 42.291-26.432c4.678-2.924 7.52-8.051 7.52-13.568v-40h64c23.104 0 44.143-12.488 55.427-32h120.573c17.645 0 32 14.355 32 32z"/></svg>